<svg width="160" height="160" viewBox="0 0 160 160" fill="none" xmlns="http://www.w3.org/2000/svg">
<g clip-path="url(#clip0_149_2)">
<path d="M54.251 128.162C55.8588 128.162 57.0525 129.693 56.6141 131.24C55.2747 135.963 50.9303 139.423 45.7782 139.423C40.626 139.423 36.2813 135.963 34.9422 131.24C34.5035 129.693 35.6975 128.162 37.3053 128.162H54.251ZM122.695 128.162C124.303 128.162 125.497 129.693 125.058 131.24C123.719 135.963 119.375 139.423 114.223 139.423C109.07 139.423 104.726 135.963 103.387 131.24C102.948 129.693 104.142 128.162 105.75 128.162H122.695Z" fill="white"/>
<path d="M148.118 73.6376C146.174 73.6391 144.284 72.9897 142.751 71.7929L79.9999 22.9669L17.2486 71.7929C13.4346 74.7604 7.93709 74.0741 4.96959 70.2604C2.00209 66.4463 2.68802 60.9488 6.50209 57.9813L74.6265 4.97443C77.7868 2.51568 82.2133 2.51568 85.373 4.97443L153.498 57.9813C157.312 60.9491 157.998 66.4463 155.03 70.2604C153.306 72.4772 150.725 73.6372 148.118 73.6376Z" stroke="white" stroke-width="6.25" stroke-miterlimit="10" stroke-linecap="round" stroke-linejoin="round"/>
<path d="M133.89 42.0822V15.6304H114.054V27.4276" stroke="white" stroke-width="6.25" stroke-miterlimit="10" stroke-linecap="round" stroke-linejoin="round"/>
<path d="M45.7782 156.87C64.6739 156.87 79.992 141.552 79.992 122.657C79.992 103.761 64.6739 88.4429 45.7782 88.4429C26.8825 88.4429 11.5645 103.761 11.5645 122.657C11.5645 141.552 26.8825 156.87 45.7782 156.87Z" stroke="white" stroke-width="6.25" stroke-miterlimit="10" stroke-linecap="round" stroke-linejoin="round"/>
<path d="M114.222 156.87C133.117 156.87 148.435 141.552 148.435 122.657C148.435 103.761 133.117 88.4429 114.222 88.4429C95.3258 88.4429 80.0078 103.761 80.0078 122.657C80.0078 141.552 95.3258 156.87 114.222 156.87Z" stroke="white" stroke-width="6.25" stroke-miterlimit="10" stroke-linecap="round" stroke-linejoin="round"/>
<path d="M104.994 115.106C103.639 113.75 101.441 113.75 100.085 115.106M128.367 115.159C127.012 113.804 124.814 113.804 123.459 115.159M36.5455 115.106C35.1898 113.75 32.9923 113.75 31.6367 115.106M59.9186 115.159C58.563 113.804 56.3655 113.804 55.0098 115.159" stroke="white" stroke-width="6.25" stroke-miterlimit="10" stroke-linecap="round" stroke-linejoin="round"/>
</g>
<defs>
<clipPath id="clip0_149_2">
<rect width="160" height="160" fill="white"/>
</clipPath>
</defs>
</svg>
