<svg xmlns="http://www.w3.org/2000/svg" version="1.1" xmlns:xlink="http://www.w3.org/1999/xlink" width="512" height="512" x="0" y="0" viewBox="0 0 512 512" style="enable-background:new 0 0 512 512" xml:space="preserve" class="">
  <g>
    <path d="M173.603 410.117c5.145 0 8.965 4.901 7.562 9.851-4.286 15.115-18.188 26.187-34.675 26.187s-30.39-11.072-34.675-26.187c-1.404-4.95 2.417-9.851 7.562-9.851h54.226zM392.625 410.117c5.145 0 8.965 4.901 7.562 9.851-4.286 15.115-18.188 26.187-34.675 26.187s-30.39-11.072-34.675-26.187c-1.404-4.95 2.417-9.851 7.562-9.851h54.226z" fill="#ffffff" opacity="1" data-original="#ffffff"/>
    <path d="M473.979 235.639a27.874 27.874 0 0 1-17.175-5.903L256 73.493 55.196 229.736c-12.205 9.496-29.797 7.3-39.293-4.904-9.496-12.205-7.301-29.797 4.904-39.293L238.805 15.917c10.113-7.868 24.278-7.868 34.389 0l217.999 169.622c12.205 9.497 14.4 27.088 4.904 39.293-5.519 7.094-13.776 10.806-22.118 10.807z" style="stroke-width:20;stroke-linecap:round;stroke-linejoin:round;stroke-miterlimit:10;" fill="none" stroke="#ffffff" stroke-width="20" stroke-linecap="round" stroke-linejoin="round" stroke-miterlimit="10" data-original="#ffffff" class=""/>
    <path d="M428.449 134.662V50.016h-63.477v37.751" style="stroke-width:20;stroke-linecap:round;stroke-linejoin:round;stroke-miterlimit:10;" fill="none" stroke="#ffffff" stroke-width="20" stroke-linecap="round" stroke-linejoin="round" stroke-miterlimit="10" data-original="#ffffff" class=""/>
    <circle cx="146.489" cy="392.5" r="109.484" style="stroke-width:20;stroke-linecap:round;stroke-linejoin:round;stroke-miterlimit:10;" fill="none" stroke="#ffffff" stroke-width="20" stroke-linecap="round" stroke-linejoin="round" stroke-miterlimit="10" data-original="#ffffff" class=""/>
    <circle cx="365.511" cy="392.5" r="109.484" style="stroke-width:20;stroke-linecap:round;stroke-linejoin:round;stroke-miterlimit:10;" fill="none" stroke="#ffffff" stroke-width="20" stroke-linecap="round" stroke-linejoin="round" stroke-miterlimit="10" data-original="#ffffff" class=""/>
    <path d="M335.982 368.339c-4.338-4.338-11.37-4.338-15.708 0M410.776 368.509c-4.338-4.338-11.37-4.338-15.708 0M116.946 368.339c-4.338-4.338-11.37-4.338-15.708 0M191.74 368.509c-4.338-4.338-11.37-4.338-15.708 0" style="stroke-width:20;stroke-linecap:round;stroke-linejoin:round;stroke-miterlimit:10;" fill="none" stroke="#ffffff" stroke-width="20" stroke-linecap="round" stroke-linejoin="round" stroke-miterlimit="10" data-original="#ffffff" class=""/>
  </g>
</svg>
